<?xml version="1.0" encoding="UTF-8" standalone="no"?>
<!-- Created with Inkscape (http://www.inkscape.org/) -->

<svg
   xmlns:dc="http://purl.org/dc/elements/1.1/"
   xmlns:cc="http://creativecommons.org/ns#"
   xmlns:rdf="http://www.w3.org/1999/02/22-rdf-syntax-ns#"
   xmlns:svg="http://www.w3.org/2000/svg"
   xmlns="http://www.w3.org/2000/svg"
   xmlns:sodipodi="http://sodipodi.sourceforge.net/DTD/sodipodi-0.dtd"
   xmlns:inkscape="http://www.inkscape.org/namespaces/inkscape"
   width="211.62965mm"
   height="120.04186mm"
   viewBox="0 0 211.62965 120.04186"
   version="1.1"
   id="svg3889"
   inkscape:version="0.92.4 (5da689c313, 2019-01-14)"
   sodipodi:docname="new_nepal.svg">
  <defs
     id="defs3883" />
  <sodipodi:namedview
     id="base"
     pagecolor="#ffffff"
     bordercolor="#666666"
     borderopacity="1.0"
     inkscape:pageopacity="0.0"
     inkscape:pageshadow="2"
     inkscape:zoom="0.35"
     inkscape:cx="394.21581"
     inkscape:cy="92.565039"
     inkscape:document-units="mm"
     inkscape:current-layer="layer1"
     showgrid="false"
     fit-margin-top="0"
     fit-margin-left="0"
     fit-margin-right="0"
     fit-margin-bottom="0"
     inkscape:window-width="1366"
     inkscape:window-height="690"
     inkscape:window-x="0"
     inkscape:window-y="27"
     inkscape:window-maximized="1" />
  <metadata
     id="metadata3886">
    <rdf:RDF>
      <cc:Work
         rdf:about="">
        <dc:format>image/svg+xml</dc:format>
        <dc:type
           rdf:resource="http://purl.org/dc/dcmitype/StillImage" />
        <dc:title></dc:title>
      </cc:Work>
    </rdf:RDF>
  </metadata>
  <g
     inkscape:label="Layer 1"
     inkscape:groupmode="layer"
     id="layer1"
     transform="translate(128.49341,-53.282641)">
    <path
       inkscape:connector-curvature="0"
       d="m 5.7588486,115.60789 0.95514,1.45256 1.27,-0.10054 1.04775,-0.45508 0.14023,0.2831 0.8546104,0.22754 1.14564,-1.0795 0.94457,-0.33866 1.83885,0.13229 1.5584,0.77258 0.98954,1.38113 0.67998,0.0265 1.94998,1.61396 0.3175,0.0159 0.6985,-0.37836 3.24908,2.78342 0.41275,0.8599 0.0317,0.82285 1.34938,2.19869 0.0609,0.50535 -0.33073,0.48683 0.0582,0.29105 1.96056,0.80962 0.90752,0.0741 v 0 l -0.38364,1.55046 -0.89165,0.71437 0.73554,2.51884 -0.0635,0.77787 -2.03729,0.20373 -0.58473,0.7329 -0.35983,1.12183 -0.80169,1.12977 -0.37042,0.94721 -0.84666,0.3519 -0.635,0.59795 0.17198,3.15913 -1.69334,1.18798 -0.66675,-0.14023 -0.56356,0.24871 -0.008,0.87048 -0.64823,0.9816 -1.54781,-0.25135 -0.53446,0.0873 -0.81227,-0.21961 -0.76994,-0.48683 -1.53723,-0.381 v 0 l -1.16681,-0.60061 -3.4104804,-1.12977 -1.51871,-1.10595 -0.24341,-1.95528 0.18785,-0.49477 -0.38364,-0.52387 -0.46038,-2.03994 -0.4101,-0.65617 -1.59279,-0.20902 -2.63261,-1.1086 -1.82298003,0.48948 -0.73817997,0.45508 -0.98955,-0.48683 -0.65881,0.91017 -0.6694,-0.082 -0.33337,-0.22755 -0.81756,0.11907 -0.46831,-0.32279 -0.10584,-0.64294 -0.72231,-0.30956 -0.22754,-0.33338 -1.13771,0.24077 -2.18546,-0.4445 -0.0794,-0.38894 0.66939,-0.85725 -0.21431,-0.43127 0.11906,-0.37571 0.75406,-0.84137 v 0 l 0.97632,0.91017 0.56356,-0.0794 0.83079,-0.51065 0.0952,-0.51065 -0.49477,-2.57704 0.59002,-0.91281 1.07686,-0.96837 0.22754,-1.04775 0.48683,-0.4154 0.33602,-1.38642 0.59267,-0.26723 0.42862,0.1614 0.49742,-0.15875 0.26987,0.0926 0.32544,-0.64294 0.85989997,-0.67204 0.127,-1.83092 0.30956,-0.79375 0.89165,-0.57679 0.41804003,-0.68527 0.16668,-0.98425 0.52653,-0.55033 1.24883,-0.43392 v 0 l 1.00012,0.29898 1.22502,-0.508 z"
       title="Bagmati"
       id="NP-BA"
       style="stroke-width:0.26458332" />
    <path
       inkscape:connector-curvature="0"
       d="m -89.303298,92.205495 0.584729,0.1905 -0.53975,1.113896 0.124355,0.661458 0.465666,0.137584 0.542396,0.502708 1.574271,-0.473604 0.777875,0.198437 0.523875,0.923396 2.354792,0.296334 0.489479,0.66675 0.812271,0.470958 1.095375,-0.703792 0.791104,0.254 0.889,-0.277812 0.529166,-0.529167 0.719667,0.03969 1.267354,0.894291 0.801688,0.0926 0.738187,-0.396875 0.3175,-0.997479 0.85725,-1.172104 3.286125,-1.87325 1.635125,0.254 1.370542,-0.02646 0.301625,0.238125 -0.22225,0.465666 -0.04763,2.500313 0.537104,0.423333 1.780646,-0.560917 1.949979,0.58473 v 0 l -1.344083,0.788458 -0.103188,1.738312 -0.677333,0.759355 -2.386542,1.291171 -1.254125,1.66158 -1.018646,-0.15611 -0.68527,0.8943 0.15875,1.14829 -0.627063,0.43127 -1.434042,0.55562 -0.645583,2.13784 -3.095625,-0.7329 -0.637646,-0.0397 -0.560916,0.28311 -0.325438,1.19591 0.53975,1.21973 0.0926,1.11919 -0.648229,1.16152 -0.79375,0.69321 0.415396,1.13771 -0.04233,0.56885 -1.389063,1.66423 -0.687917,-0.0265 -1.862666,-1.29117 -1.264709,-0.4445 -0.84402,0.79111 0.04762,0.28045 -0.333375,0.69586 0.05027,0.41804 0.923396,0.82815 0.391584,0.59795 1.060979,-0.10583 0.706437,0.32015 0.0344,0.26723 0.492125,0.39423 0.542396,0.0688 0.449792,0.35189 0.164041,0.64294 2.137834,1.09802 0.36777,0.83873 0.899584,1.15358 2.108729,0.62706 0.22225,0.97896 0.53975,0.0952 0.399521,0.46302 -0.01852,0.98161 0.288396,0.35718 -0.07408,0.94192 -1.214437,-0.24342 -0.584729,0.24078 -0.9525,0.0476 -0.703792,0.4736 v 0 l -2.547937,-0.0979 -1.235605,2.01877 -1.021291,-0.0397 -1.439334,-1.16152 -0.740833,-0.14288 -2.770187,-2.54 -0.8255,-0.0476 -0.928688,-0.36247 -3.926417,-2.30188 0.05821,-0.96308 -0.595313,-0.4789 -0.288396,-0.76729 -0.547687,-0.42598 -1.243542,-0.0635 -0.206375,0.23019 0.15875,0.58737 -1.55575,0.2884 0.235479,-0.63236 -0.24077,0.0556 -0.314855,-0.26458 0.52123,-0.20108 -0.179917,-0.90752 -2.082271,-2.32304 -0.08731,-1.30705 -0.558271,-0.94191 -2.921001,-0.59796 -0.9525,-0.59796 v 0 l 0.6641,-0.9181 0.15082,-0.85725 0.80698,-0.49477 1.301747,-1.21444 0.963082,-1.20384 0.232833,-0.84402 1.926167,-2.15106 -0.105833,-0.82285 -1.037167,-1.78594 -0.354542,-1.06098 -0.296333,-1.8071 -0.579438,0.15345 -0.656166,1.11655 -0.87048,-0.58473 -0.0106,-0.81492 -1.69333,-0.423333 -1.44198,-0.717021 -0.91546,-1.518708 1.98702,-0.656167 0.88106,-0.01323 2.965983,1.759479 2.159,0.182563 1.399646,-0.309563 0.436562,0.542396 0.748771,-0.330729 0.66675,0.0635 0.563563,-0.193146 0.928687,1.807109 1.600729,1.6801 0.153459,0.63235 0.531808,0.24342 0.685271,-0.22225 -0.280458,-0.91281 -0.595313,-0.45773 -0.306917,-0.94192 -1.452562,-1.672164 -0.240771,-0.873125 -0.894292,-0.968375 -0.0079,-1.791229 0.957792,-1.30175 2.17752,-1.320271 z"
       title="Bheri"
       id="NP-BH"
       style="stroke-width:0.26458332" />
    <path
       inkscape:connector-curvature="0"
       d="m -25.935591,86.800058 0.127,0.05027 -0.0979,0.590021 0.50535,0.306917 0.62971,-0.320146 0.68262,0.404813 0.73025,-0.113771 1.05304,1.124479 0.98955,0.216958 0.54504,0.333375 0.037,0.246063 -0.74348,0.764646 -0.2831,2.727854 -1.03717,1.291166 0.1614,0.619125 1.12977,1.23825 0.037,0.338667 -0.38365,0.809625 -0.17991,1.770063 v 0 l -0.86255,0.269875 -2.14312,2.180162 -0.50006,0.082 -0.96309,-0.6297 -0.78581,0.0714 -0.14023,1.15358 -0.34925,0.59796 -1.142998,0.89958 -1.481667,0.75406 0.01852,0.83873 0.314854,0.55298 0.584729,0.40217 0.465667,1.09273 -0.15875,0.36512 -0.595313,-0.17198 -0.902229,0.508 -0.0635,0.37836 0.465667,0.96837 0.0026,0.59532 -1.113896,0.87048 -1.190625,1.3335 -0.460375,1.2991 -0.431271,0.12435 -0.198438,0.52917 1.150938,0.48948 0.597958,0.69585 0.481542,1.31763 -0.0926,0.43392 1.095375,0.70643 -0.05027,0.28311 -0.518583,0.83873 -0.542396,-0.35984 -0.537104,0.11113 -0.291042,0.79639 0.203729,0.29634 -0.164042,1.12977 -0.762,0.73289 -0.103187,0.52652 0.216958,0.22755 -0.150812,1.37318 -0.796396,1.00277 -0.949854,0.50271 -1.235604,-0.43391 v 0 l -0.232834,-0.037 -0.484187,-1.63513 -0.325438,-0.33337 -0.865187,-0.2884 -0.473604,-0.41275 -1.045105,0.29369 -1.039812,-0.51594 -0.889,-1.29646 -0.415396,0.0714 -1.098021,-0.71437 -1.119187,-0.20373 -0.381,-0.41275 0.621771,-0.89694 0.100541,-0.635 -0.150812,-0.26723 -1.209146,0.0556 -0.396875,-0.3466 -0.679979,0.35718 -0.661459,-0.0714 -1.825625,0.46832 -0.81227,-0.0397 v 0 l -0.01587,-0.51594 -1.243542,-1.41288 -1.9685,-1.10596 -0.989542,-1.29381 -0.47625,-0.33073 -0.362479,-0.80698 -0.590021,-0.63764 -0.01852,-0.39159 0.672042,-0.13229 -0.169333,-0.46831 -0.436563,-0.27781 -0.153458,-0.36248 0.306917,-0.31486 0.6985,-0.21431 0.433916,-0.69585 1.272646,0.254 0.275167,-0.55827 -0.291042,-0.6985 -0.396875,-0.28046 0.547688,-0.50536 1.688041,0.12436 1.198563,-0.40746 0.534458,-0.42598 0.465667,-0.48154 0.613833,-1.65629 -0.238125,-0.67469 0.108479,-0.11112 v 0 l 0.238125,-0.24607 1.037167,0.70644 0.989542,0.12171 0.46302,0.254 0.64823,-0.0503 1.939395,-0.61648 1.06098,-0.68792 1.42875,-0.42068 1.037166,-0.55298 0.04233,-1.28588 0.433916,-1.156229 2.987146,-3.704166 -0.0026,-1.844146 0.291042,-1.021292 0.293687,-0.423333 0.746125,-0.129646 0.42598,-0.981604 -0.153459,-0.433917 -0.92075,-0.960437 v 0 l 0.370417,-0.478896 0.428625,-0.171979 1.084792,-0.963084 1.725083,0.22225 0.449792,-0.185208 0.775229,-1.156229 1.145646,-0.658813 1.076857,-0.246062 0.80698,0.219604 0.61648,-0.28575 z"
       title="Dhawalagiri"
       id="NP-DH"
       style="stroke-width:0.26458332" />
    <path
       inkscape:connector-curvature="0"
       d="m -19.088171,98.457599 0.3175,0.140229 0.38629,0.764646 0.65617,0.161396 0.83343,0.54769 1.42611,0.1905 0.70114,0.69585 0.22755,0.55298 -0.0503,0.55563 -0.34131,0.6641 -0.037,0.92604 0.77523,-0.22225 0.85725,0.56886 0.83608,0.23018 1.12713,-0.16404 1.28058,-0.49212 1.7224396,0.61912 0.127,0.66146 0.65881,1.19327 -0.43392,1.03452 0.11113,0.23813 1.27529,0.47096 2.12196,0.17462 0.96044,0.6694 0.5715,-0.51594 1.51077,-0.83608 1.04774997,0.37306 0.52123,-0.0847 1.03981003,-1.28588 0.84137,-0.65616 1.56634,-0.2249 0.51329,0.38365 1.09273,1.37848 -0.28311,0.49477 0.11113,1.19856 -0.27517,0.19579 -0.55562,2.1299 -0.37836,0.72231 -0.68262,3.5904 v 0 l -1.24883,0.43391 -0.52653,0.55034 -0.16668,0.98425 -0.41804003,0.68527 -0.89165,0.57679 -0.30956,0.79375 -0.127,1.83091 -0.85989997,0.67205 -0.32544,0.64293 -0.26987,-0.0926 -0.49742,0.15875 -0.42862,-0.16139 -0.59267,0.26723 -0.33602,1.38641 -0.48683,0.4154 -0.22755,1.04775 -1.07685,0.96837 -0.59002,0.91282 0.49477,2.57704 -0.0952,0.51064 -0.83079,0.51065 -0.56356,0.0794 -0.97632,-0.91017 v 0 l -1.12977,-1.47902 -1.0583296,0.0926 -0.81756,0.6985 -0.85725,0.41804 -0.1614,0.30957 -2.14312,0.70114 0.5662,1.60867 -0.0873,0.20637 v 0 l -2.16429,-0.41804 -0.57415,0.56621 -0.75406,-0.92339 -0.23019,-1.08744 -0.83608,-1.04511 -2.52148,-0.0714 -2.24102,-0.35189 -1.50019,0.18256 -3.23585,-0.58737 -2.801938,0.0318 -0.783166,-0.65088 -1.399646,-0.40746 -0.978958,-0.0847 -0.881063,0.39688 -1.444625,-0.78052 -0.672042,-0.14288 -2.828395,0.24077 -0.566209,-0.22225 -0.04233,-0.26723 0.611187,-0.5715 2.759605,-0.5371 0.415395,-0.25929 0.505355,-0.97367 v 0 l 1.235604,0.43392 0.949854,-0.50271 0.796396,-1.00277 0.150812,-1.37319 -0.216958,-0.22754 0.103187,-0.52652 0.762,-0.7329 0.164042,-1.12977 -0.203729,-0.29633 0.291042,-0.7964 0.537104,-0.11112 0.542396,0.35983 0.518583,-0.83873 0.05027,-0.2831 -1.095375,-0.70644 0.0926,-0.43392 -0.48162,-1.31761 -0.597958,-0.69585 -1.150938,-0.48948 0.198438,-0.52917 0.431271,-0.12435 0.460375,-1.29911 1.190625,-1.3335 1.113896,-0.87048 -0.0026,-0.59531 -0.465667,-0.96837 0.0635,-0.37836 0.902229,-0.508 0.595313,0.17198 0.15875,-0.36512 -0.465713,-1.09273 -0.584729,-0.40217 -0.314854,-0.55298 -0.01852,-0.83873 1.481667,-0.75406 1.142997,-0.89958 0.34925,-0.59796 0.14023,-1.15359 0.78581,-0.0714 0.96309,0.62971 0.50006,-0.082 2.14312,-2.180164 0.86255,-0.269875 v 0 l 0.40481,0.105833 0.92869,-0.455083 z"
       title="Gandaki"
       id="NP-GA"
       style="stroke-width:0.26458332" />
    <path
       inkscape:connector-curvature="0"
       d="m 32.053139,125.90018 2.39977,0.12965 0.89165,0.92869 1.29646,-0.59796 0.58737,-0.0397 0.11906,0.127 -0.69585,1.03187 0.38894,0.47625 0.28839,0.003 1.11919,-0.73025 1.14565,0.49477 0.32543,-0.65616 -0.24606,-0.41804 v 0 l 0.93663,1.16681 0.35718,1.19062 -0.29104,0.61119 -0.0979,1.1139 0.67998,1.86266 -0.0979,1.21709 -0.86519,0.5371 -1.28058,0.44979 -0.53975,1.26471 -1.14565,1.37583 -0.23548,0.57415 -0.90487,0.52123 -1.15623,1.40229 -0.38629,0.83873 -1.25677,1.05304 -0.99484,1.63248 0.0317,1.51077 0.34925,0.93927 -0.67204,1.34144 0.29369,0.28575 1.04775,0.10583 2.87337,2.06905 -0.60854,1.88647 0.1614,0.77523 -0.10054,0.5715 0.32279,0.67204 -0.56621,2.36273 -0.34925,0.34131 -1.20121,0.35719 -0.52916,0.71173 -0.72496,0.55033 -1.06363,0.0794 -1.33614,-0.62971 -0.33338,0.14288 0.27517,2.55852 -0.28311,1.4605 0.37042,1.08214 0.61913,0.36513 0.45243,0.98954 -0.80168,1.64571 v 0 l -0.12436,-0.11907 -0.91281,0.38365 0.0185,-0.64823 -1.38642,-0.50006 -0.43921,-0.42863 -0.98954,-0.22225 -0.49741,0.30692 -1.00807,-0.10054 -0.49741,0.28046 -0.3175,0.98689 -0.83344,0.19844 -0.68527,0.74083 -0.20108,-0.0556 -0.52123,0.44715 -0.25665,-0.008 0.22225,-0.62442 -0.127,-0.48948 -0.55827,-0.13493 -0.0106,0.30162 -0.31221,-0.0185 -0.41804,-0.635 -0.86784,-0.1905 -0.82285,-0.53975 -0.0318,-0.41275 -0.31221,-0.47625 0.082,-1.24619 0.21167,-0.41275 -0.14288,-0.29104 0.15611,-1.34673 -0.25136,-0.63235 -1.25677,-0.81492 -0.90487,-0.24342 -0.15875,-0.55562 -0.33338,-0.0476 -0.38894,0.48948 -0.54768,0.254 -0.09,-0.28575 -0.22225,-0.045 -0.23283,0.54505 -0.21696,-0.0582 -0.10584,0.25929 -0.25664,-0.10319 -0.58473,0.71173 -0.56092,0.003 -0.11906,0.46302 -0.42333,-0.15875 -0.082,0.34396 -0.47361,0.24077 -1.28323,-0.25665 -0.8387304,0.87577 -0.39952,-0.0714 -0.65352,0.62442 v 0 l 0.65617,-2.39183 1.3546604,-1.97379 0.45773,-1.15623 0.0212,-0.98425 -0.36777,-1.05569 0.39423,-1.18533 1.78329,-1.75948 -0.09,-0.57679 0.58738,-1.92881 -0.037,-0.56092 -0.40746,-0.9525 -0.48948,-0.57679 -0.4789,-0.23019 -0.31221,-1.0451 0.12436,-0.56092 1.15094,-1.28323 v 0 l 1.53722,0.381 0.76994,0.48683 0.81227,0.21961 0.53446,-0.0873 1.54781,0.25135 0.64823,-0.9816 0.008,-0.87048 0.56356,-0.24871 0.66675,0.14023 1.69334,-1.18798 -0.17198,-3.15913 0.635,-0.59795 0.84666,-0.3519 0.37042,-0.94721 0.80169,-1.12977 0.35983,-1.12183 0.58473,-0.7329 2.03729,-0.20373 0.0635,-0.77787 -0.73554,-2.51884 0.89165,-0.71437 0.38364,-1.55046 v 0 l 0.92604,-0.31485 0.65617,-0.55298 -0.36248,-0.68263 -0.15081,-0.7911 -0.72761,-0.69586 -0.16933,-0.81756 0.17992,-1.75154 0.60854,-0.3519 1.66158,-1.69597 0.24342,0.18256 0.005,0.48683 0.91281,1.38642 -0.51329,0.67998 0.31221,1.93939 0.30956,0.6694 z"
       title="Janakpur"
       id="NP-JA"
       style="stroke-width:0.26458332" />
    <path
       inkscape:connector-curvature="0"
       d="m -87.178694,53.282641 0.39423,0.325438 0.97102,0.179917 0.822855,0.579437 1.031875,0.296333 4.931833,0.918105 1.349375,0.563562 1.209146,-0.174625 2.013479,0.227542 0.597958,0.230187 0.145521,0.248709 -0.4445,0.627062 0.4445,1.994958 1.031875,0.947209 0.261938,0.677333 0.0079,0.568854 -0.584729,1.510771 0.288396,0.418041 2.124604,0.867834 0.851958,0.08731 0.431271,0.396875 1.473729,0.526521 0.53975,-0.02117 0.648229,0.53975 0.537105,-0.08202 0.764645,0.301625 0.428625,-0.07408 0.505355,0.724958 1.645708,0.886355 0.545042,0.62177 0.108479,0.576792 1.441979,1.486958 1.023937,0.71173 0.669396,0.965729 0.09525,0.574146 0.515938,0.79375 1.727729,0.743479 0.679979,0.788458 0.298979,0.164042 1.695979,0.06879 1.307042,0.796396 0.642938,0.0026 0.722312,0.351896 1.412875,0.997479 1.711854,0.219604 0.428625,0.624417 0.817563,-0.01588 1.251479,0.566208 0.404812,0.616479 0.02117,1.209146 1.815042,0.619125 0.182562,0.259292 -0.103187,1.082146 1.725083,1.648354 0.259292,0.881063 0.661458,0.788458 0.341313,1.635125 1.12977,0.690562 0.865188,1.341438 0.764646,0.637646 1.886479,0.881062 0.470958,-0.193146 0.1905,-0.452437 v 0 l 0.92075,0.960437 0.153459,0.433917 -0.42598,0.981604 -0.746125,0.129646 -0.293687,0.423333 -0.291042,1.021292 0.0026,1.844146 -2.987146,3.704167 -0.433916,1.156229 -0.04233,1.28588 -1.037166,0.55297 -1.42875,0.42069 -1.06098,0.68792 -1.939395,0.61648 -0.64823,0.0503 -0.46302,-0.254 -0.989542,-0.12171 -1.037167,-0.70644 -0.238125,0.24606 v 0 l -2.00282,-1.0424 -1.018645,-0.21696 -2.055813,-1.08214 -1.426104,-0.18257 -1.307042,0.27782 -0.640291,-0.27517 -0.605896,0.14552 -2.471209,-1.12713 0.08996,-1.180037 -0.799042,-0.841375 -0.875771,-1.357313 -1.103312,-0.251354 -0.751417,-0.455083 v 0 l -1.949979,-0.584729 -1.780646,0.560916 -0.537104,-0.423333 0.04763,-2.500313 0.22225,-0.465666 -0.301625,-0.238125 -1.370542,0.02646 -1.635125,-0.254 -3.286125,1.87325 -0.85725,1.172104 -0.3175,0.997479 -0.738187,0.396875 -0.801688,-0.0926 -1.267354,-0.894291 -0.719667,-0.03969 -0.529166,0.529167 -0.889,0.277812 -0.791104,-0.254 -1.095375,0.703792 -0.812271,-0.470958 -0.489479,-0.66675 -2.354798,-0.296338 -0.523875,-0.923396 -0.777875,-0.198437 -1.574271,0.473604 -0.542396,-0.502708 -0.465666,-0.137584 -0.124355,-0.661458 0.53975,-1.113896 -0.584729,-0.1905 v 0 l -0.60325,-0.132291 -0.891646,-0.80698 -0.343958,-0.6985 0.177271,-2.032 -0.431271,-0.36777 -0.1905,-0.486834 0.672042,-0.833437 2.2225,-1.93675 0.992187,-0.02646 0.754063,0.8255 0.113771,0.732896 0.425979,0.179917 1.764771,-0.791104 0.904875,-0.756709 0.817562,-1.137708 0.248708,-1.016 -0.5715,-2.248958 -0.407458,-0.494771 -0.103187,-2.524125 -0.555625,-0.492125 -0.862542,-0.07408 -0.272521,-1.648355 0.06615,-0.656166 0.9525,-0.653521 0.243417,-0.648229 -0.06879,-0.669396 0.357187,-1.582208 0.373063,-0.447146 0.312208,-0.0344 0.134938,-1.209146 -0.156104,-0.873125 -2.25425,-0.341312 -0.449792,-0.579438 -0.759354,-0.227542 -1.860021,0.608542 -0.931333,-0.07144 -1.098021,0.672041 -0.375709,-0.0026 -0.674687,0.346605 -0.179917,-1.598084 0.07938,-1.113896 -0.465666,-0.521229 -1.066271,-0.508 -0.764646,0.611188 -0.629708,0.01587 -0.632355,-0.558271 -0.851958,-0.0979 -1.039812,-0.867833 v 0 l 0.27252,-1.500187 -0.05821,-1.063625 0.709083,-0.261938 1.214438,0.03704 1.341437,-1.907646 0.03175,-1.084791 0.523875,-1.590146 -0.563562,-1.431396 -0.07673,-0.844021 0.288396,-0.79375 0.918104,-0.351896 1.285875,-0.108479 0.325437,0.169333 0.619125,0.936626 1.494896,0.436562 0.235479,-1.658938 z"
       title="Karnali"
       id="NP-KA"
       style="stroke-width:0.26458332" />
    <path
       inkscape:connector-curvature="0"
       d="m 55.558719,130.38222 2.64848,0.29105 0.94986,-0.74084 1.91029,0.39159 1.95527,-0.65352 0.31485,0.16668 -0.26987,0.3519 0.10848,0.15081 1.00012,0.18786 1.37584,-0.46038 1.13506,-0.74612 0.52123,-0.12436 0.28575,0.22754 0.0503,1.21709 0.51858,0.23548 0.9869,-0.64294 1.06362,-0.29634 v 0 l -0.42862,3.01361 -0.61119,0.94985 -0.59796,0.35984 -0.15081,0.6006 -0.33073,0.40746 -0.45508,-0.49477 -0.37307,-0.10054 -0.41539,0.5662 -0.2249,1.52136 -0.254,0.52917 -1.2356,0.73554 -0.67998,4.48204 0.10583,1.79387 0.8599,0.97102 0.38894,0.98425 1.1721,0.68263 1.83621,0.13758 1.12712,0.28311 1.88384,0.90223 0.27252,0.35454 -1.08479,1.16152 -0.254,0.57944 -0.84667,0.78052 -2.02406,1.06891 -1.34409,1.67481 -0.22489,0.98161 -0.82286,1.07421 0.61913,1.39964 -0.13494,0.635 1.35467,0.57944 0.33866,0.26194 0.21432,0.51064 0.68527,0.21696 1.49225,0.91546 0.13229,0.54769 -0.254,1.57691 -0.87048,2.47915 0.3466,1.50813 -0.42068,0.38893 0.42598,2.60086 0.55827,1.24618 v 0 l -0.29369,0.003 -0.0132,0.55827 -0.70379,0.30692 0.0344,0.36777 -1.00541,0.0582 -0.127,0.2831 -0.49477,-0.0423 -0.0952,-0.32809 -0.81492,-0.32543 -0.14817,-0.39159 -1.45256,-0.52916 -0.80698,-0.0794 -0.88635,0.53975 -1.03981,0.0662 -0.48419,0.32544 -0.37306,0.63235 0.0661,0.72231 -0.4445,0.3519 -0.71967,-0.67998 -0.26987,0.15346 -0.33073,-0.23019 -0.61648,0.0212 -0.12964,-1.06098 -0.81228,-0.0952 -0.32543,0.27252 -0.13759,-0.25136 -0.65352,-0.0291 0.082,0.26987 -0.86783,-0.0318 -1.69333,-1.34143 -0.52652,-3.88409 -0.69321,-0.0212 0.008,0.4101 -0.78053,1.13506 -0.762,0.16669 -0.23018,0.24871 -0.84402,0.0688 v 0 l -0.10584,-1.13506 0.3519,-1.12448 1.12183,-1.75683 0.72761,-0.66411 1.4896,-2.11137 2.23573,-2.19075 0.43921,-0.61648 0.22225,-1.15359 -0.48419,-0.59795 -0.73819,-0.1323 -2.01612,0.51859 -1.37319,0.90487 -0.66675,-0.62706 -0.25665,-0.49742 0.27517,-1.15358 -0.60325,-1.21179 -0.037,-2.23837 -1.02394,-0.74084 -0.13494,-0.56356 0.57944,-1.77535 -0.0529,-0.81757 -0.3519,-0.35189 -0.19579,-0.9525 0.50006,-0.32544 0.55827,0.0238 1.00806,-1.10331 -0.80698,-0.254 0.0291,-0.9234 -0.86254,-0.9525 -0.26459,-1.51606 0.90752,-1.32027 0.40217,-3.54013 0.70908,-1.43404 0.10055,-1.67217 0.37835,-0.89164 -0.86783,-0.92869 0.10583,-0.54769 0.76994,-1.03187 -0.94192,-2.51619 0.17198,-1.80446 v 0 l 0.9234,-0.005 1.09273,0.85461 0.77787,0.9525 1.08744,0.51064 0.36248,0.51859 -0.59267,0.60854 z"
       title="Koshi"
       id="NP-KO"
       style="stroke-width:0.26458332" />
    <path
       inkscape:connector-curvature="0"
       d="m -49.494089,118.07381 0.81227,0.0397 1.825625,-0.46831 0.661459,0.0714 0.679979,-0.35719 0.396875,0.3466 1.209146,-0.0556 0.150812,0.26723 -0.100541,0.635 -0.621771,0.89694 0.381,0.41275 1.119187,0.20373 1.098021,0.71437 0.415396,-0.0714 0.889,1.29646 1.039812,0.51594 1.045105,-0.29369 0.473604,0.41275 0.865187,0.2884 0.325438,0.33337 0.484187,1.63513 0.232834,0.037 v 0 l -0.505355,0.97367 -0.415395,0.25929 -2.759605,0.5371 -0.611187,0.5715 0.04233,0.26723 0.566209,0.22225 2.828395,-0.24077 0.672042,0.14287 1.444625,0.78053 0.881063,-0.39688 0.978958,0.0847 1.399646,0.40746 0.783166,0.65087 2.801941,-0.0318 3.23585,0.58738 1.50019,-0.18256 2.24102,0.35189 2.52148,0.0714 0.83608,1.04511 0.23019,1.08743 0.75406,0.9234 0.57415,-0.56621 2.16429,0.41804 v 0 l -0.15346,0.46302 -0.82814,0.8599 -0.94986,0.35189 -0.38893,-0.29368 -2.55323,1.18533 -0.34661,0.39158 -0.73554,0.21696 -0.13494,0.32015 -0.92075,0.36512 -0.59795,1.26207 -0.49213,0.48418 -1.14829,0.23284 -4.27831,0.25135 -0.25136,0.17463 0.0159,0.29368 1.12448,0.31486 -0.51859,0.6985 -0.36777,1.02129 v 0 l -0.3175,-0.1614 -0.53446,0.25929 -1.06627,0.14553 -0.611187,-0.3228 -0.246063,0.2593 -0.11377,0.4392 1.283229,1.3388 -0.513292,0.90752 -1.124479,-0.87842 -5.455708,-2.74108 -5.498042,-0.26988 -0.211667,0.0741 0.0344,0.26459 0.298979,0.35718 -0.41275,0.74613 0.375709,0.39423 0.01323,0.47889 -0.283104,0.28311 -0.0979,0.47096 -0.436563,0.21431 -0.01852,0.30162 -0.415395,0.43657 -1.190625,0.3122 -0.862542,-0.508 -0.227542,-0.43391 0.0635,-0.55563 -1.468437,-1.06891 -0.272521,-0.53975 -0.555625,-0.50007 -3.410479,0.14023 -0.777875,-0.13758 -1.897063,-0.57415 -0.283104,-0.62441 -0.351896,-0.19844 -1.103312,0.127 -1.103313,-0.15081 -0.587375,0.16933 -1.989666,-0.15875 -0.0979,-0.38365 0.298979,-0.27781 -0.216958,-0.73554 0.359833,-1.00806 -0.447146,-0.84667 0.164042,-0.56356 -0.288396,-0.27781 -0.0026,-0.33073 -0.330729,-0.0714 -0.108479,-0.21432 0.0926,-0.76729 -0.283104,-0.62706 0.127,-0.53975 -0.328084,0.25664 v 0 l -0.0291,-0.47095 0.463021,-0.38365 2.066396,0.30427 0.687917,-0.58737 0.722312,-0.1323 0.367771,-0.51593 -0.407458,-0.24871 -0.764646,-0.0688 -0.960438,-0.65617 0.706438,-1.84944 1.023937,-0.635 1.156229,0.09 1.69598,-0.54768 2.010833,-0.0952 0.0053,-0.61913 -0.478896,-0.67733 -1.177396,-0.72496 0.280458,-1.92617 1.246188,-1.18798 0.521229,-0.20902 0.637646,-0.73554 -0.978959,-0.64558 0.06615,-1.21179 -0.314854,-0.33338 0.677333,-0.61648 0.96573,-0.32279 z"
       title="Lumbini"
       id="NP-LU"
       style="stroke-width:0.26458332" />
    <path
       inkscape:connector-curvature="0"
       d="m -105.87415,60.733308 0.90223,-0.187854 0.24871,-0.232833 0.33866,0.121708 0.89694,-0.325438 1.09273,-0.03704 0.70114,0.719667 0.51859,0.894292 -0.33338,0.79375 0.0238,1.021291 0.35454,0.481542 0.41011,0.0926 v 0 l -0.9234,0.463021 -0.381,0.505354 -0.74612,0.269875 -0.46567,0.425979 -0.66675,1.965854 0.35719,0.881063 0.78052,0.936625 0.0423,0.98425 0.58208,0.66675 0.26723,1.195917 -0.59531,1.127125 -2.29129,0.574145 -1.56898,0.0635 -3.37609,1.542521 0.31486,1.30175 -0.11377,1.137709 -0.34396,0.777875 -0.50006,0.137583 0.1217,0.788458 0.94986,0.650875 0.11112,0.912813 1.15623,-0.02381 0.62707,0.402167 0.3122,0.425979 0.1323,0.719667 -0.61913,1.150937 -0.71437,0.582084 -1.1139,0.14552 -0.95779,0.60325 0.22489,1.489605 -0.8202,1.579562 -0.61913,0.579438 -0.16933,0.629708 -3.15648,1.465792 -0.36777,1.156229 -0.74877,0.404812 0.33866,0.735542 -0.83873,2.407708 -0.0767,0.584729 0.18521,0.619125 -0.37041,3.418411 1.00806,2.50032 0.12435,0.86254 -0.21696,1.05304 v 0 l -1.0742,0.71702 0.3175,2.53471 0.32014,0.32808 -0.26723,0.32544 -0.86519,-0.77258 -0.45772,-0.127 0.0529,-0.39423 -0.21431,-0.55298 -0.71173,-0.50535 -1.44198,0.21166 -0.35454,-0.14816 -0.1905,-0.48419 -0.76729,-0.4445 -0.24871,-0.88106 -1.12448,-0.3863 -0.45244,-0.4445 0.21961,-0.55298 -0.22225,-0.29368 -1.3388,-0.19315 -2.01083,-1.83621 -1.33085,-0.0423 -0.30692,-0.16669 -0.17727,-0.4736 0.0767,-2.169584 0.93398,-1.852083 0.48154,-0.113771 0.11112,-0.508 0.39952,-0.113771 -0.26987,-0.235479 -0.008,-0.600604 0.3466,-0.635 -0.19314,-0.486833 0.41539,-0.9525 0.87577,-0.812271 0.87313,0.381 0.53975,0.01323 0.32279,-0.441855 0.5424,-0.314854 -0.26723,-0.60325 0.0159,-0.669396 -0.35455,-0.447146 0.0953,-0.494771 0.1958,0.01852 0.0794,0.235479 0.48948,0.0926 0.21431,0.346604 0.27252,-0.07937 -0.12171,-1.084791 0.17198,-0.179917 0.0952,-1.240896 0.29634,-0.492125 -0.0714,-0.679979 -0.51594,-0.127 -0.0556,-0.402167 -0.24077,-0.100541 -0.0476,-0.441854 -0.21431,-0.187855 0.14817,-0.261937 -0.0926,-0.60325 -0.74612,-0.415396 -0.0688,-0.968375 0.0185,-0.150812 0.87048,-0.343959 0.19314,0.288396 0.38894,-0.08202 -0.2831,-0.563562 0.27516,-0.489479 0.34661,0.156104 0.0529,-0.365125 0.92075,-0.701146 0.11113,-0.439208 -0.24342,-0.182563 0.0767,-0.388937 0.89165,-0.592667 0.30691,-0.0053 0.42069,-0.806979 -0.0159,-0.523875 0.27252,-0.754062 -0.75407,-0.833438 -0.381,-1.336146 -0.254,-0.338666 0.0926,-0.71173 0.34131,0.01323 0.38894,-0.338667 0.20373,-0.891646 0.73025,-0.463021 0.41275,0.224896 0.42333,-0.100542 0.67998,0.148167 0.29898,-0.722312 1.37054,-1.248834 0.34925,-0.968375 -0.0476,-0.844021 0.72231,-0.90752 0.74348,-0.306917 1.36525,0.09525 1.02659,-1.158875 0.60325,-0.07673 0.64558,-1.592792 0.51858,-0.328083 0.56886,-0.841375 0.78846,-0.201083 0.25664,-0.470958 0.6059,-0.402167 0.0767,-0.399521 -0.25665,-0.841375 0.90488,-1.317625 0.39158,0.02117 0.0661,0.875771 z"
       title="Mahakali"
       id="NP-MA"
       style="stroke-width:0.26458332" />
    <path
       inkscape:connector-curvature="0"
       d="m 80.411039,129.12016 0.66939,0.09 0.3519,-0.1561 1.11125,0.17992 0.59266,0.4392 -0.0106,0.37836 -0.63235,0.55298 0.57414,0.90752 -0.46566,1.13241 -0.59796,0.55828 -0.17463,1.79916 -0.66146,0.63765 -0.37306,1.15887 -0.71966,0.59267 v 0.7329 l -0.42334,0.36512 -0.10054,0.33073 0.17727,0.1905 -0.59002,1.10596 0.0847,0.62441 0.52652,0.84138 v 0.50535 l -0.51594,0.43127 -0.17198,0.82021 0.0318,0.44715 0.41275,0.4101 0.0952,0.44715 -0.77258,1.67217 -0.0503,0.95514 -0.41804,0.81756 0.0106,1.64307 -0.67733,1.49225 0.88106,0.78052 0.082,0.85196 0.45773,0.5027 0.60589,0.20373 0.39952,-0.127 0.22225,0.83079 0.59532,0.55563 0.49477,0.0608 -0.29634,1.1086 0.5424,0.57415 0.003,1.1139 0.83873,0.8202 -0.19844,0.65617 0.41804,1.19592 0.0503,2.286 -0.52123,1.07685 -0.17727,1.31233 -0.50006,0.38365 -0.21961,0.57679 0.0159,0.82286 -0.45508,0.13493 -0.0159,0.29634 -0.20637,0.11112 0.14816,0.47361 -0.32544,0.87312 0.23813,1.24884 -0.31221,0.34131 0.17463,0.21696 -0.42598,0.68527 -1.39436,1.30175 -0.0582,0.62971 -0.54504,0.0132 -0.2831,-0.22225 -0.17992,-0.28575 0.0212,-0.59002 -0.67204,-0.14023 -0.98954,-0.59531 -0.30428,-0.42069 0.23548,-0.37041 -0.67998,-0.0847 0.27782,-0.27781 -0.52123,-0.80169 -0.10848,0.29369 -0.70115,0.37835 0.12171,0.31486 -0.29898,0.18521 -0.0741,0.28839 -0.54504,-0.13758 0.037,-0.27252 -0.38894,-0.29898 -0.6985,-0.22225 0.0741,0.14287 -0.39158,0.33073 0.0794,0.48948 -0.34925,0.73554 -0.32544,0.0318 -0.10583,-0.28575 -0.25136,-0.0265 -0.12435,0.32015 -0.28575,-0.127 -0.24077,-0.44185 -0.64823,-0.24077 v 0 l -0.55827,-1.24619 -0.42598,-2.60086 0.42068,-0.38893 -0.3466,-1.50813 0.87048,-2.47914 0.254,-1.57692 -0.13229,-0.54769 -1.49225,-0.91546 -0.68527,-0.21696 -0.21432,-0.51064 -0.33866,-0.26194 -1.35467,-0.57944 0.13494,-0.635 -0.61913,-1.39964 0.82286,-1.07421 0.22489,-0.9816 1.34409,-1.67481 2.02406,-1.06892 0.84667,-0.78052 0.254,-0.57944 1.08479,-1.16152 -0.27252,-0.35454 -1.88384,-0.90223 -1.12712,-0.2831 -1.83621,-0.13759 -1.1721,-0.68262 -0.38894,-0.98425 -0.8599,-0.97102 -0.10583,-1.79388 0.67998,-4.48204 1.2356,-0.73554 0.254,-0.52917 0.2249,-1.52135 0.41539,-0.56621 0.37307,0.10054 0.45508,0.49477 0.33073,-0.40746 0.15081,-0.6006 0.59796,-0.35983 0.61119,-0.94986 0.42862,-3.0136 v 0 l 0.62177,0.22225 0.25665,0.59531 0.41275,-0.53446 0.24871,-0.0212 1.143,0.61383 0.52123,-0.70908 0.8255,0.16404 0.70908,0.71702 0.19315,-0.15345 0.59002,0.0265 0.35719,-0.15875 0.58208,-0.69321 0.4101,-1.1774 1.31234,-1.08479 1.10066,0.32015 z"
       title="Mechi"
       id="NP-ME"
       style="stroke-width:0.26458332" />
    <path
       inkscape:connector-curvature="0"
       d="m -8.2587814,130.34254 -0.75406,0.84137 -0.11906,0.37571 0.21431,0.43127 -0.66939,0.85725 0.0794,0.38894 2.18546,0.4445 1.13771,-0.24077 0.22754,0.33337 0.72231,0.30957 0.10583,0.64293 0.46832,0.32279 0.81756,-0.11906 0.33337,0.22754 0.6694,0.082 0.65881,-0.91016 0.98954,0.48683 0.73818997,-0.45508 1.82298003,-0.48948 2.63261,1.1086 1.59279,0.20902 0.4101,0.65617 0.46038,2.03994 0.38364,0.52387 -0.18785,0.49477 0.24341,1.95527 1.51871,1.10596 3.4104804,1.12977 1.16681,0.60061 v 0 l -1.15093,1.28323 -0.12436,0.56091 0.31221,1.04511 0.4789,0.23019 0.48948,0.57679 0.40745,0.9525 0.037,0.56091 -0.58738,1.92882 0.09,0.57679 -1.78329,1.75948 -0.39423,1.18533 0.36777,1.05569 -0.0212,0.98425 -0.45773,1.15623 -1.3546604,1.97379 -0.65617,2.39183 v 0 l -0.75142,-0.30956 -1.12448,-0.0714 -0.65352,-0.24342 -0.78581,0.0714 -0.77787,-1.56898 0.3757,-0.58473 0.0476,-0.99218 -2.21721,-0.0767 -0.6006,0.18785 0.14023,0.16669 -0.14288,0.15346 -0.20373,-0.12436 -0.36777,0.25665 -0.80962003,-0.10583 -0.17727,-0.0794 0.14552,-0.53975 0.67468003,-0.29369 -1.24883003,-0.28575 -0.25665,-0.16933 0.15082,-0.16933 -0.13229,-0.28046 -0.78582,-0.12965 0.254,-0.6006 -0.51063997,-0.63765 -1.57957,-0.30427 -1.11654,-0.55033 -0.005,-0.47096 -0.74877,-0.35983 -0.33337,0.0423 -0.49213,0.65881 -0.51329,-0.62177 -0.37306,0.51858 -3.04536,-1.35466 0.11377,-0.76465 0.72232,-0.85725 -0.0953,-0.28575 0.1561,-0.0662 0.21431,-1.31233 -0.21166,-0.0503 -0.082,-0.2831 0.21432,-0.29369 0.14023,-1.21973 -1.27265,-2.6326 -0.5424,-0.73819 -3.4924996,-0.6059 -0.39422,0.15081 -1.24619,-0.48418 -2.18017,-0.12436 -0.95779,-0.46566 -0.24871,0.19579 -0.43656,-0.35454 -0.0767,-0.82815 -0.37042,-0.27517 -0.13229,-0.44185 -0.66675,0.003 -0.10583,0.2831 -0.17992,0.008 -0.19579,-0.81227 -0.63235,-0.10848 -0.82021,-0.44979 -0.16404,-0.29369 0.13758,-0.64029 -0.65352,0.22754 -0.30956,-0.29633 -0.28046,0.0529 -0.18257,0.70909 -0.29897,0.25135 -0.34925,0.0106 -0.5424,1.2409 -0.25929,-0.0582 -0.46302,0.28839 -0.64294,-0.27781 -0.44715,0.21167 -0.34131,-0.23019 -0.58473,0.0609 v 0 l 0.36777,-1.02129 0.51859,-0.6985 -1.12448,-0.31486 -0.0159,-0.29369 0.25136,-0.17462 4.27831,-0.25135 1.14829,-0.23284 0.49213,-0.48419 0.59795,-1.26206 0.92075,-0.36512 0.13494,-0.32015 0.73554,-0.21696 0.34661,-0.39158 2.55323,-1.18533 0.38893,0.29368 0.94986,-0.35189 0.82814,-0.8599 0.15346,-0.46302 v 0 l 0.0873,-0.20637 -0.5662,-1.60867 2.14312,-0.70115 0.1614,-0.30956 0.85725,-0.41804 0.81756,-0.6985 1.0583296,-0.0926 z"
       title="Narayani"
       id="NP-NA"
       style="stroke-width:0.26458332" />
    <path
       inkscape:connector-curvature="0"
       d="m -62.995777,96.102808 0.751417,0.455083 1.103312,0.251354 0.875771,1.357313 0.799042,0.841375 -0.08996,1.180037 2.471209,1.12713 0.605896,-0.14552 0.640291,0.27517 1.307042,-0.27782 1.426104,0.18257 2.055813,1.08214 1.018645,0.21696 2.002896,1.04246 v 0 l -0.108479,0.11112 0.238125,0.67469 -0.613833,1.65629 -0.465667,0.48154 -0.534458,0.42598 -1.198563,0.40746 -1.688041,-0.12435 -0.547688,0.50535 0.396875,0.28046 0.291042,0.6985 -0.275167,0.55827 -1.272646,-0.254 -0.433916,0.69585 -0.6985,0.21432 -0.306917,0.31485 0.153458,0.36248 0.436563,0.27781 0.169333,0.46832 -0.672042,0.13229 0.01852,0.39158 0.590021,0.63765 0.362479,0.80698 0.47625,0.33072 0.989542,1.29382 1.9685,1.10596 1.243542,1.41287 0.01587,0.51594 v 0 l -0.219605,0.32014 -0.965729,0.3228 -0.677333,0.61647 0.314854,0.33338 -0.06615,1.21179 0.978959,0.64558 -0.637646,0.73555 -0.521229,0.20902 -1.246188,1.18798 -0.280458,1.92616 1.177396,0.72496 0.478895,0.67733 -0.0053,0.61913 -2.010834,0.0952 -1.695979,0.54769 -1.156229,-0.09 -1.023937,0.635 -0.706438,1.84944 0.960438,0.65616 0.764645,0.0688 0.407459,0.24871 -0.367771,0.51594 -0.722313,0.13229 -0.687916,0.58738 -2.066396,-0.30428 -0.463021,0.38365 0.0291,0.47096 v 0 l -0.672041,0.10054 -0.367771,-0.13229 -0.108479,0.21696 -0.592667,0.0397 -0.926042,0.46566 -1.434041,0.30957 -0.690563,-0.11113 -1.090083,0.39688 -0.423334,-0.0238 -1.8415,-1.10596 -0.425979,-0.7329 -1.987021,-1.12977 -2.283354,-1.99231 -1.227666,-0.57944 -0.214313,0.2196 -0.669396,-0.22754 -0.635,-0.57679 -0.679979,-1.07156 v 0 l 0.703792,-0.47361 0.9525,-0.0476 0.584729,-0.24077 1.214437,0.24342 0.07408,-0.94192 -0.288396,-0.35718 0.01852,-0.98161 -0.399521,-0.46302 -0.53975,-0.0953 -0.22225,-0.97896 -2.108729,-0.62706 -0.899584,-1.15358 -0.36777,-0.83873 -2.137834,-1.09802 -0.164041,-0.64294 -0.449792,-0.3519 -0.542396,-0.0688 -0.492125,-0.39423 -0.0344,-0.26722 -0.706437,-0.32015 -1.060979,0.10583 -0.391584,-0.59796 -0.923396,-0.82814 -0.05027,-0.41804 0.333375,-0.69586 -0.04762,-0.28046 0.84402,-0.7911 1.264709,0.4445 1.862666,1.29117 0.687917,0.0265 1.389063,-1.66423 0.04233,-0.56886 -0.415396,-1.1377 0.79375,-0.69321 0.648229,-1.16152 -0.0926,-1.11919 -0.53975,-1.21973 0.325438,-1.19592 0.560916,-0.2831 0.637646,0.0397 3.095625,0.7329 0.645583,-2.13784 1.434042,-0.55562 0.627063,-0.43127 -0.15875,-1.1483 0.68527,-0.89429 1.018646,0.15611 1.254125,-1.66159 2.386542,-1.291163 0.677333,-0.759355 0.103188,-1.738312 z"
       title="Rapti"
       id="NP-RA"
       style="stroke-width:0.26458332" />
    <path
       inkscape:connector-curvature="0"
       d="m 45.353739,122.58495 0.14553,1.20121 0.29897,0.34661 0.4445,-0.0582 0.84138,0.80962 1.09537,-0.37571 0.28575,0.0714 0.20903,0.57944 1.3335,0.68792 0.45243,0.67998 0.65617,0.23283 0.68527,-0.0423 v 0 l -0.17198,1.80446 0.94192,2.51618 -0.76994,1.03188 -0.10583,0.54769 0.86783,0.92868 -0.37835,0.89165 -0.10055,1.67217 -0.70908,1.43404 -0.40217,3.54012 -0.90752,1.32027 0.26459,1.51607 0.86254,0.9525 -0.0291,0.92339 0.80698,0.254 -1.00806,1.10332 -0.55827,-0.0238 -0.50006,0.32543 0.19579,0.9525 0.3519,0.3519 0.0529,0.81756 -0.57944,1.77536 0.13494,0.56356 1.02394,0.74083 0.037,2.23838 0.60325,1.21179 -0.27517,1.15358 0.25665,0.49742 0.66675,0.62706 1.37319,-0.90487 2.01612,-0.51859 0.73819,0.1323 0.48419,0.59795 -0.22225,1.15359 -0.43921,0.61648 -2.23573,2.19075 -1.4896,2.11137 -0.72761,0.66411 -1.12183,1.75683 -0.3519,1.12448 0.10584,1.13506 v 0 l -0.2884,0.037 -0.0608,0.78582 -0.9234,0.0503 0.0106,0.7276 -0.90752,0.17992 -0.49477,0.44714 -1.9341,-0.51858 -0.86784,0.96308 -0.83872,-0.41275 -0.14553,-0.30691 -1.70127,-0.55827 -0.46302,-0.56092 -1.06891,-0.28575 -0.90488,-1.25942 -0.97102,-0.0238 -1.05833,-0.71967 -1.61396,-0.53446 -0.0476,-0.26458 -1.38641,-0.32808 0.0635,-0.30692 -0.90223,-0.0953 -0.37571,0.19844 -1.03981,-0.0106 -0.6694,0.67468 -0.76994,-0.13229 -0.10847,-0.55033 -0.41275,-0.005 v 0 l 0.80168,-1.64571 -0.45243,-0.98954 -0.61913,-0.36513 -0.37042,-1.08214 0.28311,-1.4605 -0.27517,-2.55853 0.33338,-0.14287 1.33614,0.62971 1.06363,-0.0794 0.72496,-0.55033 0.52916,-0.71173 1.20121,-0.35719 0.34925,-0.34131 0.56621,-2.36273 -0.32279,-0.67204 0.10054,-0.5715 -0.1614,-0.77523 0.60854,-1.88648 -2.87337,-2.06904 -1.04775,-0.10584 -0.29369,-0.28575 0.67204,-1.34143 -0.34925,-0.93927 -0.0317,-1.51078 0.99484,-1.63247 1.25677,-1.05305 0.38629,-0.83873 1.15623,-1.40229 0.90487,-0.52123 0.23548,-0.57414 1.14565,-1.37584 0.53975,-1.2647 1.28058,-0.4498 0.86519,-0.5371 0.0979,-1.21708 -0.67998,-1.86267 0.0979,-1.1139 0.29104,-0.61118 -0.35718,-1.19063 -0.93663,-1.16681 v 0 l -0.51594,-0.56885 0.14288,-1.04511 0.20902,-0.43656 0.94721,-0.56621 0.83873,-1.08215 0.54239,-0.12964 0.81756,0.2831 1.14301,-0.88371 1.06891,0.0159 z"
       title="Sagarmatha"
       id="NP-SA"
       style="stroke-width:0.26458332" />
    <path
       inkscape:connector-curvature="0"
       d="m -99.193423,64.990453 0.510646,0.301625 0.370417,-0.05821 0.457729,-0.134937 0.672042,-0.66675 v 0 l 1.039812,0.867833 0.851958,0.0979 0.632355,0.558271 0.629708,-0.01587 0.764646,-0.611188 1.066271,0.508 0.465666,0.521229 -0.07938,1.113896 0.179917,1.598083 0.674687,-0.346604 0.375709,0.0026 1.098021,-0.672042 0.931333,0.07144 1.860021,-0.608542 0.759354,0.227542 0.449792,0.579437 2.25425,0.341313 0.156104,0.873125 -0.134938,1.209146 -0.312208,0.0344 -0.373063,0.447145 -0.357187,1.582209 0.06879,0.669396 -0.243417,0.648229 -0.9525,0.653521 -0.06615,0.656166 0.272521,1.648354 0.862542,0.07408 0.555625,0.492125 0.103187,2.524125 0.407458,0.494771 0.5715,2.248958 -0.248708,1.016 -0.817562,1.137708 -0.904875,0.756709 -1.764771,0.791104 -0.425979,-0.179917 -0.113771,-0.732896 -0.754063,-0.8255 -0.992187,0.02646 -2.2225,1.93675 -0.672042,0.833437 0.1905,0.486833 0.431271,0.367771 -0.177271,2.032 0.343959,0.6985 0.891645,0.806979 0.60325,0.132292 v 0 l 0.04498,0.272521 -2.17752,1.320271 -0.957792,1.30175 0.0079,1.791229 0.894292,0.968375 0.240771,0.873125 1.452562,1.67217 0.306917,0.94191 0.595313,0.45773 0.280458,0.91282 -0.685271,0.22225 -0.531812,-0.24342 -0.153459,-0.63236 -1.600729,-1.6801 -0.928687,-1.807104 -0.563563,0.193146 -0.66675,-0.0635 -0.748771,0.330729 -0.436562,-0.542396 -1.399646,0.309562 -2.159,-0.182562 -2.965982,-1.759479 -0.88106,0.01323 -1.98702,0.656167 0.91546,1.518708 1.44198,0.717021 1.69333,0.423338 0.0106,0.81491 0.870479,0.58473 0.656166,-1.11654 0.579438,-0.15346 0.296333,1.80711 0.354542,1.06097 1.037167,1.78594 0.105833,0.82286 -1.926167,2.15106 -0.232833,0.84402 -0.963083,1.20385 -1.301755,1.21444 -0.80698,0.49477 -0.15081,0.85725 -0.6641,0.91811 v 0 l -0.59796,-0.4154 -0.17198,0.3519 -0.38365,-0.30163 0.45244,-0.56885 -0.25135,-0.20638 -0.3519,0.10319 -0.0714,-0.43127 -0.30427,-0.0556 -0.77787,0.44714 -0.15875,-0.19314 0.3175,-0.28311 -0.51594,0.15082 -0.49742,-0.15611 0.0767,-0.44714 -0.34925,0.3466 -0.19844,-0.0238 -0.037,-0.21167 -0.19579,0.17198 -0.25664,-0.12964 -0.082,-0.50271 0.26987,-0.46567 -0.45244,-0.31485 -0.71702,-0.008 0.0344,0.37306 -0.62441,-0.16404 -0.46302,-0.53446 -0.96309,-0.25665 0.0265,-0.47095 -0.4101,-0.32015 -0.0265,-0.40746 -0.62442,-0.22754 -0.30956,0.18256 -0.85196,-0.25135 -0.20373,-0.32015 0.0979,-0.46037 -0.43921,-0.0688 -0.0159,-0.43921 -0.27516,-0.23283 -0.045,-0.381 -0.96838,0.0926 -0.62442,-0.36248 -0.35189,0.0873 0.0476,-0.28046 -0.29898,-0.16669 0.17198,-0.53446 -1.06627,-0.3175 v 0 l 0.21696,-1.05304 -0.12436,-0.86254 -1.00806,-2.50031 0.37042,-3.418419 -0.18521,-0.619126 0.0767,-0.584729 0.83873,-2.407708 -0.33867,-0.735542 0.74877,-0.404812 0.36777,-1.156229 3.15648,-1.465792 0.16933,-0.629708 0.61913,-0.579438 0.82021,-1.579562 -0.2249,-1.489604 0.95779,-0.60325 1.1139,-0.145521 0.71437,-0.582084 0.61913,-1.150937 -0.13229,-0.719667 -0.31221,-0.425979 -0.62706,-0.402167 -1.15623,0.02381 -0.11113,-0.912813 -0.94985,-0.650875 -0.12171,-0.788458 0.50006,-0.137583 0.34396,-0.777875 0.11377,-1.137709 -0.31485,-1.30175 3.37608,-1.54252 1.56898,-0.0635 2.29129,-0.574146 0.59531,-1.127125 -0.26723,-1.195917 -0.58208,-0.66675 -0.0423,-0.98425 -0.78052,-0.936625 -0.35719,-0.881062 0.66675,-1.965855 0.46567,-0.425979 0.74613,-0.269875 0.381,-0.505354 0.92339,-0.463021 v 0 z"
       title="Seti"
       id="NP-SE"
       style="stroke-width:0.26458332" />
  </g>
</svg>
